# xmcd
#
# Track frame offsets: 
#        150
#        13641
#        37922
#        58372
#        83255
#        103986
#        119884
#        152860
#        177559
#        198387
#        217966
#
# Disc length: 3295 seconds
#
# Revision: 4
# Processed by: cddbd v1.5.1PL0 Copyright (c) Steve Scherf et al.
# Submitted via: ExactAudioCopy v0.95a5
#
DISCID=990cdd0b
DTITLE=Sade - live and alive
DYEAR=1993
DGENRE=Blues
TTITLE0=Instrumental Opening
TTITLE1=Cherry Pie
TTITLE2=Nothing Can Come Between Us
TTITLE3=The Sweetest Taboo
TTITLE4=Smooth Operator
TTITLE5=Keep Looking
TTITLE6=Is It A Crime?
TTITLE7=No Ordinary Love
TTITLE8=Love Is Stronger Than Pride
TTITLE9=Pearls
TTITLE10=Cherish The Day
EXTD=
EXTT0=
EXTT1=
EXTT2=
EXTT3=
EXTT4=
EXTT5=
EXTT6=
EXTT7=
EXTT8=
EXTT9=
EXTT10=
PLAYORDER=
